# xmcd CD database file
#
# Track frame offsets:
#	183
#	10210
#	18308
#	28988
#	42443
#	53310
#	66638
#	79318
#	86973
#	100558
#	109530
#	123063
#	132540
#	146168
#	156623
#	165945
#
# Disc length: 2346 seconds
#
# Revision: 1
# Processed by: cddbd v1.4PL0 Copyright (c) Steve Scherf et al.
# Submitted via: CDex 1.51
#
DISCID=d6092810
DTITLE=Various Artist - Stars Of Country And Western Vol 1
DYEAR=1988
DGENRE=Country
TTITLE0=Dave Dudley - Oh Lonesome Me
TTITLE1=Johnny Cash - Country Boy
TTITLE2=Patsy Cline - I Can See An Angel
TTITLE3=T. Texas Tylar - Courtin' In The Rain
TTITLE4=Hank Locklin - Send Me The Pillow That You Dream On
TTITLE5=Patti Page - Tennessee Waltz
TTITLE6=George Jones - I Love You Because
TTITLE7=Roger Miller - Do Waka Do
TTITLE8=Lynn Anderson - Rose Garden
TTITLE9=Quinn Brothers - Kiss An Angel Good Morning
TTITLE10=Jimmy Dean - Big Bad John
TTITLE11=Skeeter Davis - Am I That Easy To Forget
TTITLE12=Carl Perkins - Every Road
TTITLE13=Jimmie Rodgers - Kisses Sweeter Than Wine
TTITLE14=Jeannie C. Riley - The Girl Most Likely
TTITLE15=Floyd Tillman - Slippin' Around
EXTD=YEAR: 1988
EXTT0=
EXTT1=
EXTT2=
EXTT3=
EXTT4=
EXTT5=
EXTT6=
EXTT7=
EXTT8=
EXTT9=
EXTT10=
EXTT11=
EXTT12=
EXTT13=
EXTT14=
EXTT15=
PLAYORDER=
